<?xml version="1.0" encoding="UTF-8" standalone="no"?>
<!DOCTYPE svg PUBLIC "-//W3C//DTD SVG 1.1//EN" "http://www.w3.org/Graphics/SVG/1.1/DTD/svg11.dtd">
<svg width="100%" height="100%" viewBox="0 0 64 64" version="1.1" xmlns="http://www.w3.org/2000/svg" xmlns:xlink="http://www.w3.org/1999/xlink" xml:space="preserve" xmlns:serif="http://www.serif.com/" style="fill-rule:evenodd;clip-rule:evenodd;stroke-linejoin:round;stroke-miterlimit:2;">
    <g transform="matrix(1.16269,0,0,1.16269,-3.247489,-5.206069)">
        <path d="M13.84,50.353L13.902,50.413C25.32,44.338 36.194,37.293 46.404,29.355C47.198,31.529 47.615,33.844 47.615,36.2C47.615,47.122 38.644,56.116 27.723,56.144C22.514,56.126 17.518,54.042 13.84,50.353Z"/>
    </g>
    <g transform="matrix(1.16269,0,0,1.16269,-3.247489,-5.206069)">
        <path d="M36.381,7.856C39.831,7.851 43.206,8.755 46.174,10.455C47.688,11.32 49.093,12.39 50.345,13.646L22.327,41.818C20.016,39.48 18.34,36.628 17.41,33.534C16.852,31.673 16.569,29.742 16.568,27.799C16.566,24.584 17.336,21.386 18.851,18.489C16.878,15.851 14.007,14.024 10.782,13.352C10.493,13.288 10.286,13.03 10.286,12.735C10.286,12.489 10.43,12.264 10.653,12.161C13.626,10.789 16.856,10.065 20.13,10.037C22.124,10.025 24.111,10.276 26.04,10.782C29.148,8.864 32.729,7.851 36.381,7.856ZM39.69,14.551C38.963,13.266 36.33,13.393 33.809,14.835C31.288,16.277 29.835,18.487 30.561,19.772C31.287,21.057 33.92,20.93 36.441,19.488C38.962,18.046 40.417,15.836 39.69,14.551Z"/>
    </g>
</svg>
